<svg width="28" height="27" viewBox="0 0 28 27" fill="none" xmlns="http://www.w3.org/2000/svg">
    <path d="M27.0313 10.4012C26.9177 10.0512 26.7038 9.74243 26.416 9.51322C26.1282 9.28401 25.7794 9.14452 25.4129 9.11212L18.4532 8.51212L15.725 2.02462C15.583 1.68421 15.3434 1.39343 15.0365 1.18891C14.7295 0.984379 14.3689 0.875244 14 0.875244C13.6312 0.875244 13.2706 0.984379 12.9636 1.18891C12.6566 1.39343 12.4171 1.68421 12.275 2.02462L9.55511 8.51212L2.58714 9.11563C2.21921 9.14655 1.8686 9.28541 1.57927 9.51479C1.28995 9.74418 1.07479 10.0539 0.960774 10.4051C0.84676 10.7562 0.838967 11.1333 0.938373 11.4889C1.03778 11.8444 1.23996 12.1628 1.51956 12.4039L6.80589 17.0234L5.22151 23.8836C5.13773 24.2426 5.16164 24.6183 5.29024 24.9638C5.41884 25.3093 5.64643 25.6092 5.94455 25.826C6.24268 26.0429 6.5981 26.167 6.9664 26.183C7.3347 26.1989 7.69952 26.1059 8.01526 25.9156L13.9918 22.2828L19.9813 25.9156C20.297 26.1059 20.6618 26.1989 21.0301 26.183C21.3984 26.167 21.7539 26.0429 22.052 25.826C22.3501 25.6092 22.5777 25.3093 22.7063 24.9638C22.8349 24.6183 22.8588 24.2426 22.775 23.8836L21.1918 17.0164L26.477 12.4039C26.7565 12.1619 26.9583 11.8427 27.057 11.4864C27.1556 11.13 27.1466 10.7525 27.0313 10.4012ZM25.2477 10.9871L19.9625 15.5996C19.7053 15.8234 19.514 16.113 19.4091 16.4374C19.3042 16.7618 19.2897 17.1086 19.3672 17.4406L20.9551 24.3125L14.9703 20.6797C14.6784 20.5019 14.3431 20.4078 14.0012 20.4078C13.6593 20.4078 13.324 20.5019 13.0321 20.6797L7.0555 24.3125L8.63284 17.4453C8.71036 17.1133 8.69589 16.7665 8.591 16.4421C8.48611 16.1177 8.29475 15.8281 8.03753 15.6043L2.75003 10.9941C2.7496 10.9906 2.7496 10.9871 2.75003 10.9836L9.71565 10.3813C10.0557 10.3513 10.3812 10.229 10.6569 10.0277C10.9326 9.82632 11.1481 9.55351 11.2801 9.23868L14 2.75938L16.7188 9.23868C16.8508 9.55351 17.0663 9.82632 17.342 10.0277C17.6177 10.229 17.9432 10.3513 18.2832 10.3813L25.25 10.9836V10.9918L25.2477 10.9871Z" fill="white"/>
</svg>
